STARTFONT 2.1
FONT -Monotype-Century Schoolbook-Regular-R-Normal--36-360-75-75-P-183-iso8859-2
SIZE 36 75 75
FONTBOUNDINGBOX 44 46 -6 -8

STARTPROPERTIES 24
FOUNDRY "Monotype"
FAMILY_NAME "Century Schoolbook"
WEIGHT_NAME "Regular"
SLANT "R"
SETWIDTH_NAME "Normal"
ADD_STYLE_NAME ""
PIXEL_SIZE 36
POINT_SIZE 360
RESOLUTION_X 75
RESOLUTION_Y 75
SPACING "P"
AVERAGE_WIDTH 183
CHARSET_REGISTRY "iso8859"
CHARSET_ENCODING "2"
FACE_NAME "Century Schoolbook ISO Latin2"
_DEC_DEVICE_FONTNAMES "PS=centuryschoolbook-lat2"
COPYRIGHT "Copyright (c) 1993 Monotype Typography Ltd."
CAP_HEIGHT 33
X_HEIGHT 21
WEIGHT 10
QUAD_WIDTH 22
DEFAULT_CHAR 160
FONT_DESCENT 8
FONT_ASCENT 38
ENDPROPERTIES

CHARS 191

STARTCHAR space
ENCODING 32
SWIDTH 278 0
DWIDTH 11 0
BBX 0 0 0 0
BITMAP
ENDCHAR

STARTCHAR exclam
ENCODING 33
SWIDTH 296 0
DWIDTH 11 0
BBX 5 29 3 0
BITMAP
70
F8
F8
F8
F8
F8
78
70
70
70
70
70
30
20
20
20
20
20
20
20
00
00
00
00
30
78
78
78
30
ENDCHAR

STARTCHAR quotedbl
ENCODING 34
SWIDTH 389 0
DWIDTH 15 0
BBX 11 11 2 15
BITMAP
E1E0
F1E0
F1E0
F1E0
F1E0
60C0
60C0
60C0
60C0
60C0
2040
ENDCHAR

STARTCHAR numbersign
ENCODING 35
SWIDTH 556 0
DWIDTH 21 0
BBX 22 28 -1 0
BITMAP
00E070
00C060
00C060
01C060
01C0E0
0180E0
0180C0
0180C0
FFFFFC
FFFFFC
0301C0
030180
030180
070180
070380
060380
060300
060300
FFFFFC
FFFFFC
0C0700
0C0600
0C0600
1C0600
1C0E00
180C00
180C00
180C00
ENDCHAR

STARTCHAR dollar
ENCODING 36
SWIDTH 556 0
DWIDTH 21 0
BBX 16 33 3 -5
BITMAP
0180
0180
0FF0
3998
618C
618E
C18E
C19E
C19E
E18C
E180
7980
7F80
3FC0
1FF0
0FF8
01FC
01BE
019E
0187
6187
F183
F183
F183
E187
4186
719C
1FF8
0180
0180
0180
0180
0180
ENDCHAR

STARTCHAR percent
ENCODING 37
SWIDTH 833 0
DWIDTH 32 0
BBX 28 27 2 0
BITMAP
1F000000
31800300
60C00600
60C00400
E0E00C00
E0E01800
E0E03000
E0E02000
E0E06000
E0E0C000
60C08000
70C18000
31830000
0F060000
00040F80
000C18C0
00183060
00107070
00207070
00607070
00C07070
00807070
01807070
03003060
06003060
040018C0
0C000780
ENDCHAR

STARTCHAR ampersand
ENCODING 38
SWIDTH 815 0
DWIDTH 31 0
BBX 26 28 3 0
BITMAP
00FE0000
01C70000
03830000
07038000
07038000
07038000
07030000
07870000
07860000
039C0000
03F80000
01E00000
07E0FFC0
1CF01F00
38F01C00
70780C00
70781800
E03C1800
E03E1000
E01F3000
F00F6000
F00FC040
F807C040
7C03E0C0
7E07F9C0
3F9CFF80
1FF87F00
03E01E00
ENDCHAR

STARTCHAR quoteright
ENCODING 39
SWIDTH 204 0
DWIDTH 8 0
BBX 5 10 1 18
BITMAP
70
F8
F8
F8
18
18
10
30
60
C0
ENDCHAR

STARTCHAR parenleft
ENCODING 40
SWIDTH 333 0
DWIDTH 13 0
BBX 10 35 2 -7
BITMAP
0040
00C0
0180
0300
0600
0E00
0C00
1C00
1800
3800
3800
7000
7000
7000
F000
F000
F000
F000
F000
F000
F000
7000
7000
7000
7800
3800
3800
1C00
0C00
0E00
0600
0300
0180
0080
0040
ENDCHAR

STARTCHAR parenright
ENCODING 41
SWIDTH 333 0
DWIDTH 13 0
BBX 10 35 0 -7
BITMAP
8000
C000
6000
3000
1800
1C00
0C00
0E00
0700
0700
0780
0380
0380
0380
03C0
03C0
03C0
03C0
03C0
03C0
03C0
0380
0380
0380
0780
0700
0700
0E00
0C00
1C00
1800
3000
6000
4000
8000
ENDCHAR

STARTCHAR asterisk
ENCODING 42
SWIDTH 500 0
DWIDTH 19 0
BBX 16 14 2 14
BITMAP
0180
03C0
03C0
0180
6186
F99F
FC3F
7FFE
0180
0340
0E70
1E78
1E78
1C38
ENDCHAR

STARTCHAR plus
ENCODING 43
SWIDTH 606 0
DWIDTH 23 0
BBX 20 20 1 3
BITMAP
006000
006000
006000
006000
006000
006000
006000
006000
006000
FFFFF0
FFFFF0
006000
006000
006000
006000
006000
006000
006000
006000
006000
ENDCHAR

STARTCHAR comma
ENCODING 44
SWIDTH 278 0
DWIDTH 11 0
BBX 5 10 3 -6
BITMAP
F0
F8
F8
78
18
18
10
30
60
C0
ENDCHAR

STARTCHAR minus
ENCODING 45
SWIDTH 606 0
DWIDTH 23 0
BBX 21 2 1 12
BITMAP
FFFFF8
FFFFF8
ENDCHAR

STARTCHAR period
ENCODING 46
SWIDTH 278 0
DWIDTH 11 0
BBX 4 5 3 0
BITMAP
60
F0
F0
F0
60
ENDCHAR

STARTCHAR slash
ENCODING 47
SWIDTH 278 0
DWIDTH 11 0
BBX 11 28 0 0
BITMAP
00E0
00C0
01C0
01C0
0180
0180
0380
0300
0300
0700
0700
0600
0600
0E00
0C00
0C00
1C00
1800
1800
3800
3800
3000
3000
7000
6000
6000
E000
E000
ENDCHAR

STARTCHAR zero
ENCODING 48
SWIDTH 556 0
DWIDTH 21 0
BBX 18 26 2 0
BITMAP
03F000
0E1C00
1C0E00
180700
380700
300380
700380
700380
7003C0
F003C0
F003C0
F003C0
F003C0
F003C0
F003C0
F003C0
F003C0
700380
700380
700380
380380
380700
180600
1C0E00
0E1C00
03F000
ENDCHAR

STARTCHAR one
ENCODING 49
SWIDTH 556 0
DWIDTH 21 0
BBX 14 26 4 0
BITMAP
0080
0380
3F80
FF80
0380
0380
0380
0380
0380
0380
0380
0380
0380
0380
0380
0380
0380
0380
0380
0380
0380
0380
0380
0380
07C0
7FFC
ENDCHAR

STARTCHAR two
ENCODING 50
SWIDTH 556 0
DWIDTH 21 0
BBX 17 26 2 0
BITMAP
07F800
0E3C00
100E00
300700
600780
600780
780780
7C0780
7C0780
3C0700
000F00
000E00
001C00
003800
007000
00E000
00C000
018000
030080
060080
0C0180
180180
300380
7FFF80
7FFF80
FFFF80
ENDCHAR

STARTCHAR three
ENCODING 51
SWIDTH 556 0
DWIDTH 21 0
BBX 17 27 3 0
BITMAP
0FF000
1C3C00
300E00
700F00
700700
780700
780700
380700
000700
000E00
000C00
003800
0FF000
0C3C00
000E00
000F00
000780
000780
F00780
F00780
F00780
F00780
C00700
C00F00
601E00
387C00
0FF000
ENDCHAR

STARTCHAR four
ENCODING 52
SWIDTH 556 0
DWIDTH 21 0
BBX 18 26 2 0
BITMAP
000400
000C00
001C00
003C00
003C00
006C00
00DC00
009C00
019C00
031C00
021C00
061C00
0C1C00
181C00
181C00
301C00
601C00
401C00
FFFFC0
FFFFC0
001C00
001C00
001C00
001C00
003E00
01FF80
ENDCHAR

STARTCHAR five
ENCODING 53
SWIDTH 556 0
DWIDTH 21 0
BBX 17 26 3 0
BITMAP
3C0600
3FFE00
3FFC00
3FF000
200000
200000
200000
200000
200000
27E000
2FF800
303C00
600E00
C00F00
000700
000780
000780
600780
F00780
F00780
F00700
C00F00
C00E00
601C00
387800
0FE000
ENDCHAR

STARTCHAR six
ENCODING 54
SWIDTH 556 0
DWIDTH 21 0
BBX 18 26 2 0
BITMAP
01FC00
038700
060700
0C0780
1C0F80
380F80
380200
780000
700000
700000
F0F800
F3FE00
F60F00
FC0780
F80380
F803C0
F003C0
F003C0
7003C0
7003C0
780380
380380
380700
1C0600
0E1C00
03F800
ENDCHAR

STARTCHAR seven
ENCODING 55
SWIDTH 556 0
DWIDTH 21 0
BBX 17 26 3 0
BITMAP
7FFF80
7FFF00
7FFF00
600200
C00600
C00400
C00C00
800800
001800
001000
003000
003000
006000
006000
00E000
00E000
01E000
01C000
01C000
03C000
03C000
03C000
03C000
03C000
03C000
018000
ENDCHAR

STARTCHAR eight
ENCODING 56
SWIDTH 556 0
DWIDTH 21 0
BBX 18 26 2 0
BITMAP
07F800
0C1E00
180700
300300
300380
700380
700380
700300
380300
3E0600
1FDC00
0FF800
03FE00
07FF00
1C1F80
3007C0
7003C0
E001C0
E000C0
E000C0
E000C0
600180
700180
380300
1E0E00
07F800
ENDCHAR

STARTCHAR nine
ENCODING 57
SWIDTH 556 0
DWIDTH 21 0
BBX 18 26 2 0
BITMAP
07F000
0E1C00
3C0E00
380700
700700
700380
F00380
F00380
F003C0
F003C0
F003C0
7807C0
780DC0
3E1BC0
1FF3C0
07C3C0
000380
000380
000380
300700
780700
780600
780E00
701C00
387800
0FE000
ENDCHAR

STARTCHAR colon
ENCODING 58
SWIDTH 278 0
DWIDTH 11 0
BBX 4 18 3 0
BITMAP
60
F0
F0
F0
60
00
00
00
00
00
00
00
00
60
F0
F0
F0
60
ENDCHAR

STARTCHAR semicolon
ENCODING 59
SWIDTH 278 0
DWIDTH 11 0
BBX 5 24 3 -6
BITMAP
F0
F0
F0
F0
00
00
00
00
00
00
00
00
00
00
F0
F8
F8
78
18
18
10
30
60
C0
ENDCHAR

STARTCHAR less
ENCODING 60
SWIDTH 606 0
DWIDTH 23 0
BBX 21 20 1 3
BITMAP
000008
000038
0000F8
0007F0
001F80
007E00
03F000
0FC000
7F0000
F00000
F80000
7E0000
1F8000
03F000
00FC00
003F80
0007E0
0001F8
000078
000008
ENDCHAR

STARTCHAR equal
ENCODING 61
SWIDTH 606 0
DWIDTH 23 0
BBX 21 11 1 7
BITMAP
FFFFF8
FFFFF8
000000
000000
000000
000000
000000
000000
000000
FFFFF8
FFFFF8
ENDCHAR

STARTCHAR greater
ENCODING 62
SWIDTH 606 0
DWIDTH 23 0
BBX 21 20 1 3
BITMAP
800000
E00000
F80000
7F0000
0FC000
03F000
007E00
001F80
0007F0
000078
0000F8
0003F0
001FC0
007E00
01F800
0FE000
3F0000
FC0000
F00000
800000
ENDCHAR

STARTCHAR question
ENCODING 63
SWIDTH 444 0
DWIDTH 17 0
BBX 14 29 2 0
BITMAP
0FC0
30F0
6078
E03C
E01C
F01C
F01C
F01C
003C
003C
0078
0070
00E0
01C0
0180
0300
0200
0200
0200
0200
0000
0000
0000
0000
0600
0F00
0F00
0F00
0600
ENDCHAR

STARTCHAR at
ENCODING 64
SWIDTH 737 0
DWIDTH 28 0
BBX 27 29 0 -3
BITMAP
001FE000
00E03800
03800C00
06000300
0C000100
18000080
18000080
300738C0
2018B040
60307040
60707040
40606040
C0C06040
C0C0E040
C1C0C0C0
C181C080
C380C080
C382C100
C3858300
43898600
61F1CC20
60E0F060
30000040
10000080
18000180
0C000200
07000C00
01C07000
007FC000
ENDCHAR

STARTCHAR A
ENCODING 65
SWIDTH 722 0
DWIDTH 27 0
BBX 28 28 0 0
BITMAP
00060000
00060000
000E0000
000F0000
000F0000
001F8000
00178000
00338000
0033C000
0023C000
0061E000
0041E000
00C1E000
00C0F000
0080F000
01807800
01007800
03003800
03FFFC00
02003C00
06001E00
04001E00
0C001E00
0C000F00
18000F00
1C000F80
7E000FC0
FFC07FF0
ENDCHAR

STARTCHAR B
ENCODING 66
SWIDTH 722 0
DWIDTH 27 0
BBX 24 28 2 0
BITMAP
FFFFE0
1F81F8
0F007C
0F003E
0F001E
0F001E
0F001E
0F001E
0F001E
0F003C
0F003C
0F0078
0F01E0
0FFFC0
0F00F8
0F003C
0F001E
0F001F
0F000F
0F000F
0F000F
0F000F
0F000F
0F001F
0F001E
0F003C
1F81F8
FFFFC0
ENDCHAR

STARTCHAR C
ENCODING 67
SWIDTH 722 0
DWIDTH 27 0
BBX 23 28 2 0
BITMAP
00FF0C
01E1CC
07807C
0F003C
1E001C
1C001C
3C000C
3C000C
780004
780004
780004
F80000
F80000
F80000
F80000
F80000
F80000
780000
780002
780006
3C0006
3C0004
1E000C
1E0008
0F0038
03C060
01FFC0
003E00
ENDCHAR

STARTCHAR D
ENCODING 68
SWIDTH 778 0
DWIDTH 30 0
BBX 26 28 1 0
BITMAP
FFFFE000
0F81F800
0F003C00
0F001E00
0F000F00
0F000F00
0F000780
0F000780
0F0007C0
0F0007C0
0F0003C0
0F0003C0
0F0003C0
0F0003C0
0F0003C0
0F0003C0
0F0003C0
0F0003C0
0F0007C0
0F0007C0
0F000780
0F000780
0F000F00
0F000F00
0F001E00
0F003C00
1F81F000
FFFFC000
ENDCHAR

STARTCHAR E
ENCODING 69
SWIDTH 722 0
DWIDTH 27 0
BBX 23 28 2 0
BITMAP
FFFFFC
0F007C
0F003C
0F001C
0F000C
0F000C
0F0004
0F0104
0F0104
0F0300
0F0300
0F0700
0F0F00
0FFF00
0F0F00
0F0700
0F0300
0F0300
0F0102
0F0102
0F0006
0F0006
0F0006
0F000E
0F001E
0F003E
1F00FE
FFFFFE
ENDCHAR

STARTCHAR F
ENCODING 70
SWIDTH 667 0
DWIDTH 25 0
BBX 22 28 2 0
BITMAP
FFFFFC
0F00FC
0F003C
0F001C
0F000C
0F000C
0F000C
0F0104
0F0104
0F0304
0F0300
0F0700
0F0F00
0FFF00
0F0F00
0F0700
0F0300
0F0300
0F0100
0F0100
0F0000
0F0000
0F0000
0F0000
0F0000
0F0000
1F8000
FFF800
ENDCHAR

STARTCHAR G
ENCODING 71
SWIDTH 778 0
DWIDTH 30 0
BBX 26 28 2 0
BITMAP
00FF0C00
01E1CC00
07807C00
0F003C00
1E001C00
1C001C00
3C000C00
38000C00
78000600
78000600
78000000
F8000000
F8000000
F8000000
F8000000
F801FFC0
F8001E00
78001E00
78001E00
78001E00
3C001E00
3C001E00
1C001E00
1E003E00
0F003600
07806600
01E1C600
007F0600
ENDCHAR

STARTCHAR H
ENCODING 72
SWIDTH 833 0
DWIDTH 32 0
BBX 28 28 2 0
BITMAP
FFF0FFF0
0F000F80
0F000F00
0F000F00
0F000F00
0F000F00
0F000F00
0F000F00
0F000F00
0F000F00
0F000F00
0F000F00
0FFFFF00
0FFFFF00
0F000F00
0F000F00
0F000F00
0F000F00
0F000F00
0F000F00
0F000F00
0F000F00
0F000F00
0F000F00
0F000F00
0F000F00
1F801F80
FFF0FFF0
ENDCHAR

STARTCHAR I
ENCODING 73
SWIDTH 407 0
DWIDTH 15 0
BBX 12 28 2 0
BITMAP
FFF0
1F80
0F00
0F00
0F00
0F00
0F00
0F00
0F00
0F00
0F00
0F00
0F00
0F00
0F00
0F00
0F00
0F00
0F00
0F00
0F00
0F00
0F00
0F00
0F00
0F00
1F80
FFF0
ENDCHAR

STARTCHAR J
ENCODING 74
SWIDTH 556 0
DWIDTH 21 0
BBX 20 28 0 0
BITMAP
01FFF0
000F00
000F00
000F00
000F00
000F00
000F00
000F00
000F00
000F00
000F00
000F00
000F00
000F00
000F00
000F00
000F00
3C0F00
7C0F00
FE0F00
FC0F00
FC0F00
C00F00
C01E00
601E00
603C00
38F800
0FE000
ENDCHAR

STARTCHAR K
ENCODING 75
SWIDTH 778 0
DWIDTH 30 0
BBX 28 28 2 0
BITMAP
FFF0FFE0
0F803F80
0F001E00
0F001800
0F003800
0F007000
0F006000
0F00C000
0F018000
0F030000
0F060000
0F0E0000
0F1F0000
0F3F8000
0F678000
0FC7C000
0FC3E000
0F81E000
0F01F000
0F00F800
0F007800
0F007C00
0F003E00
0F001E00
0F001F00
0F000F80
1F801FC0
FFF0FFF0
ENDCHAR

STARTCHAR L
ENCODING 76
SWIDTH 667 0
DWIDTH 25 0
BBX 23 28 1 0
BITMAP
FFF000
1F8000
0F0000
0F0000
0F0000
0F0000
0F0000
0F0000
0F0000
0F0000
0F0000
0F0000
0F0000
0F0000
0F0000
0F0000
0F0000
0F0002
0F0002
0F0006
0F0006
0F0006
0F000E
0F000E
0F001E
0F003E
1F80FE
FFFFFE
ENDCHAR

STARTCHAR M
ENCODING 77
SWIDTH 944 0
DWIDTH 36 0
BBX 34 28 1 0
BITMAP
FF80007FC0
0DC000DE00
0DC000DC00
0DC000BC00
0DE001BC00
0DE001BC00
0CF0013C00
0CF0033C00
0CF0033C00
0C78023C00
0C78063C00
0C38063C00
0C3C043C00
0C3C0C3C00
0C1E0C3C00
0C1E083C00
0C1E183C00
0C0F183C00
0C0F103C00
0C0F303C00
0C07A03C00
0C07A03C00
0C03E03C00
0C03C03C00
0C03C03C00
1E01C03C00
7F81807E00
FFC183FFC0
ENDCHAR

STARTCHAR N
ENCODING 78
SWIDTH 815 0
DWIDTH 31 0
BBX 29 28 2 0
BITMAP
FE001FF8
1F0007E0
0F8003C0
0F800180
0FC00180
0DE00180
0DF00180
0CF00180
0CF80180
0C7C0180
0C3E0180
0C1E0180
0C1F0180
0C0F8180
0C07C180
0C03C180
0C03E180
0C01F180
0C00F980
0C007980
0C007D80
0C003F80
0C001F80
0C000F80
0C000F80
1E000780
FFC00380
FFC00180
ENDCHAR

STARTCHAR O
ENCODING 79
SWIDTH 778 0
DWIDTH 30 0
BBX 26 28 2 0
BITMAP
00FF8000
01E1E000
07807800
0F003C00
1E001E00
1C000E00
3C000F00
3C000F80
78000780
78000780
780007C0
F80007C0
F80007C0
F80007C0
F80007C0
F80007C0
F80007C0
78000780
78000780
78000780
3C000F00
3C000F00
1C000E00
1E001E00
0F003C00
07807800
01E1E000
007F8000
ENDCHAR

STARTCHAR P
ENCODING 80
SWIDTH 667 0
DWIDTH 25 0
BBX 23 28 2 0
BITMAP
FFFFC0
1F81F0
0F0078
0F003C
0F003E
0F001E
0F001E
0F001E
0F001E
0F001E
0F003E
0F003C
0F0078
0F03F0
0FFFC0
0F0000
0F0000
0F0000
0F0000
0F0000
0F0000
0F0000
0F0000
0F0000
0F0000
0F0000
1F8000
FFF800
ENDCHAR

STARTCHAR Q
ENCODING 81
SWIDTH 778 0
DWIDTH 30 0
BBX 26 35 2 -7
BITMAP
007FC000
01E1F000
07807800
0F003C00
1E001E00
1E000F00
3C000F00
3C000F80
7C000780
78000780
78000780
F80007C0
F80007C0
F80007C0
F80007C0
F80007C0
F80007C0
780007C0
7C3F0780
7C618780
3CC0CF80
3C80EF00
1E806E00
1F807E00
0F807C00
07C07800
01E1F000
007FF800
00007840
00007840
00003C40
00003CC0
00003FC0
00001F80
00000F00
ENDCHAR

STARTCHAR R
ENCODING 82
SWIDTH 722 0
DWIDTH 27 0
BBX 25 28 2 0
BITMAP
FFFFC000
0F81F000
0F007800
0F007800
0F003C00
0F003C00
0F003C00
0F003C00
0F003C00
0F003C00
0F007800
0F00F000
0F03C000
0FFE0000
0F070000
0F038000
0F01C000
0F01E000
0F00E000
0F00F000
0F00F000
0F00F080
0F00F080
0F00F880
0F007980
0F007F00
1F003F00
FFF01C00
ENDCHAR

STARTCHAR S
ENCODING 83
SWIDTH 630 0
DWIDTH 24 0
BBX 20 28 2 0
BITMAP
07F040
0E1CC0
1807C0
3003C0
7001C0
6001C0
6000C0
6000C0
700040
780040
7C0000
3FC000
3FFC00
1FFF00
07FFC0
00FFE0
000FE0
C001F0
C000F0
C00070
E00070
E00070
F00060
F00060
F800C0
F601C0
E78700
C1FC00
ENDCHAR

STARTCHAR T
ENCODING 84
SWIDTH 667 0
DWIDTH 25 0
BBX 24 28 1 0
BITMAP
7FFFFE
7C3C3E
783C1E
703C0E
603C06
603C06
C03C03
C03C03
C03C03
C03C03
C03C03
003C00
003C00
003C00
003C00
003C00
003C00
003C00
003C00
003C00
003C00
003C00
003C00
003C00
003C00
003C00
007E00
03FFC0
ENDCHAR

STARTCHAR U
ENCODING 85
SWIDTH 815 0
DWIDTH 31 0
BBX 29 28 1 0
BITMAP
FFF01FF8
1F8007E0
0F0003C0
0F000180
0F000180
0F000180
0F000180
0F000180
0F000180
0F000180
0F000180
0F000180
0F000180
0F000180
0F000180
0F000180
0F000180
0F000180
0F000180
0F000180
0F000180
0F000180
07800300
07800300
03C00E00
03F03C00
00FFF800
003FE000
ENDCHAR

STARTCHAR V
ENCODING 86
SWIDTH 722 0
DWIDTH 27 0
BBX 28 28 0 0
BITMAP
FFE07FF0
3F0007C0
1E000780
0F000300
0F000600
07000600
07800600
07800C00
03C00C00
03C00C00
01C01800
01E01800
01E03000
00F03000
00F03000
00F06000
00786000
00786000
003CC000
003CC000
003C8000
001F8000
001F8000
000F0000
000F0000
000F0000
00060000
00060000
ENDCHAR

STARTCHAR W
ENCODING 87
SWIDTH 981 0
DWIDTH 37 0
BBX 36 28 1 0
BITMAP
FF8FFF1FF0
7C01F003E0
3C00F00380
1C00F00180
1E00700300
1E00780300
0E00F80300
0F00F80200
0F00BC0600
0F01BC0600
07819C0600
07819E0C00
07831E0C00
03C30E0C00
03C30F0800
03C20F1800
01E60F1800
01E6079000
01E407B000
00EC07B000
00FC03F000
00FC03E000
007803E000
007801E000
007801C000
003001C000
003000C000
0030008000
ENDCHAR

STARTCHAR X
ENCODING 88
SWIDTH 704 0
DWIDTH 27 0
BBX 26 28 1 0
BITMAP
FFE1FF80
3F007E00
1E003800
0F003000
0F807000
07806000
03C0C000
03E1C000
01E18000
00F30000
00FF0000
007E0000
003C0000
003E0000
001E0000
003F0000
00378000
00678000
00C3C000
00C3E000
0181E000
0300F000
0300F800
06007800
0E003C00
1E003E00
7F003F00
FFC1FFC0
ENDCHAR

STARTCHAR Y
ENCODING 89
SWIDTH 704 0
DWIDTH 27 0
BBX 27 28 0 0
BITMAP
FFF07FE0
3F001F80
1F000F00
0F000E00
07800C00
07C00C00
03C01800
03E01800
01E03000
00F03000
00F86000
0078E000
003CC000
003F8000
001F8000
001F0000
000F0000
000F0000
000F0000
000F0000
000F0000
000F0000
000F0000
000F0000
000F0000
000F0000
001F8000
00FFF000
ENDCHAR

STARTCHAR Z
ENCODING 90
SWIDTH 611 0
DWIDTH 23 0
BBX 21 28 1 0
BITMAP
3FFFF8
3F00F0
3C01F0
3801E0
3003C0
7003C0
600780
600F80
600F00
601E00
003E00
003C00
007C00
007800
00F000
01F000
01E000
03C000
03C018
078018
0F8018
0F0038
1E0038
3E0070
3C0070
7C00F0
7807F0
FFFFF0
ENDCHAR

STARTCHAR bracketleft
ENCODING 91
SWIDTH 333 0
DWIDTH 13 0
BBX 8 35 4 -7
BITMAP
FF
F0
E0
E0
E0
E0
E0
E0
E0
E0
E0
E0
E0
E0
E0
E0
E0
E0
E0
E0
E0
E0
E0
E0
E0
E0
E0
E0
E0
E0
E0
E0
E0
F0
FF
ENDCHAR

STARTCHAR backslash
ENCODING 92
SWIDTH 606 0
DWIDTH 23 0
BBX 21 28 1 0
BITMAP
C00000
600000
700000
300000
180000
1C0000
0E0000
060000
070000
038000
018000
00C000
00E000
006000
003000
003800
001C00
000C00
000E00
000700
000300
000180
0001C0
0000C0
000060
000070
000038
000018
ENDCHAR

STARTCHAR bracketright
ENCODING 93
SWIDTH 333 0
DWIDTH 13 0
BBX 8 35 0 -7
BITMAP
FF
0F
07
07
07
07
07
07
07
07
07
07
07
07
07
07
07
07
07
07
07
07
07
07
07
07
07
07
07
07
07
07
07
0F
FF
ENDCHAR

STARTCHAR asciicircum
ENCODING 94
SWIDTH 606 0
DWIDTH 23 0
BBX 17 13 3 13
BITMAP
008000
01C000
01E000
036000
077000
063000
0E1800
0C1800
180C00
380E00
300600
700300
E00380
ENDCHAR

STARTCHAR underscore
ENCODING 95
SWIDTH 500 0
DWIDTH 19 0
BBX 19 2 0 -5
BITMAP
FFFFE0
FFFFE0
ENDCHAR

STARTCHAR quoteleft
ENCODING 96
SWIDTH 204 0
DWIDTH 8 0
BBX 5 10 1 18
BITMAP
18
30
60
40
C0
C0
F8
F8
F8
70
ENDCHAR

STARTCHAR a
ENCODING 97
SWIDTH 556 0
DWIDTH 21 0
BBX 19 18 2 0
BITMAP
0FF000
1C3C00
301E00
780E00
780E00
780E00
300E00
007E00
07CE00
1C0E00
380E00
700E00
E00E00
E01E00
F03E00
F06F20
7FC7E0
1F0380
ENDCHAR

STARTCHAR b
ENCODING 98
SWIDTH 556 0
DWIDTH 21 0
BBX 18 28 1 0
BITMAP
3C0000
FC0000
3C0000
1C0000
1C0000
1C0000
1C0000
1C0000
1C0000
1C0000
1C7800
1DFE00
1D0700
1E0380
1E0380
1E01C0
1C01C0
1C01C0
1C01C0
1C01C0
1C01C0
1C01C0
1C01C0
1E0380
1E0380
1B0700
138E00
30F800
ENDCHAR

STARTCHAR c
ENCODING 99
SWIDTH 444 0
DWIDTH 17 0
BBX 14 18 1 0
BITMAP
07E0
1C38
381C
703C
703C
F03C
E010
E000
E000
E000
E000
F000
F004
700C
7808
3C18
1FF0
03C0
ENDCHAR

STARTCHAR d
ENCODING 100
SWIDTH 574 0
DWIDTH 22 0
BBX 19 28 2 0
BITMAP
000F00
007F00
000F00
000700
000700
000700
000700
000700
000700
000700
07E700
1E3700
381B00
380F00
700F00
700700
F00700
F00700
F00700
F00700
F00700
700700
700F00
780F00
381B00
1C3780
0FE7E0
030000
ENDCHAR

STARTCHAR e
ENCODING 101
SWIDTH 500 0
DWIDTH 19 0
BBX 16 18 2 0
BITMAP
07E0
1C38
381C
700C
700E
F00E
E00E
E00F
FFFF
E000
E000
F000
F003
7002
7806
3C1C
0FF8
03C0
ENDCHAR

STARTCHAR f
ENCODING 102
SWIDTH 333 0
DWIDTH 13 0
BBX 14 28 1 0
BITMAP
01F0
0718
061C
0E3C
0C3C
1C18
1C00
1C00
1C00
1C00
FFC0
FFC0
1C00
1C00
1C00
1C00
1C00
1C00
1C00
1C00
1C00
1C00
1C00
1C00
1C00
1C00
3E00
FFC0
ENDCHAR

STARTCHAR g
ENCODING 103
SWIDTH 537 0
DWIDTH 20 0
BBX 19 26 2 -7
BITMAP
0001C0
07E3E0
1C3CC0
381CC0
781E00
700E00
700E00
700E00
700E00
381C00
381C00
1C3800
1FE000
300000
600000
600000
7FFC00
3FFF00
07FF80
380780
600180
E00180
E00180
700300
3C1E00
1FF000
ENDCHAR

STARTCHAR h
ENCODING 104
SWIDTH 611 0
DWIDTH 23 0
BBX 22 28 0 0
BITMAP
1E0000
FE0000
1E0000
0E0000
0E0000
0E0000
0E0000
0E0000
0E0000
0E0000
0E1F00
0E7F80
0EC3C0
0F81E0
0F00E0
0F00E0
0E00E0
0E00E0
0E00E0
0E00E0
0E00E0
0E00E0
0E00E0
0E00E0
0E00E0
0E00E0
1F01F0
7FC7FC
ENDCHAR

STARTCHAR i
ENCODING 105
SWIDTH 315 0
DWIDTH 12 0
BBX 10 28 1 0
BITMAP
0C00
1E00
1E00
1E00
0000
0000
0000
0000
0000
0000
3E00
FE00
1E00
0E00
0E00
0E00
0E00
0E00
0E00
0E00
0E00
0E00
0E00
0E00
0E00
0E00
1E00
7FC0
ENDCHAR

STARTCHAR j
ENCODING 106
SWIDTH 296 0
DWIDTH 11 0
BBX 9 35 -1 -7
BITMAP
0380
0780
0780
0380
0000
0000
0000
0000
0000
0000
0F80
3F80
0780
0380
0380
0380
0380
0380
0380
0380
0380
0380
0380
0380
0380
0380
0380
0380
0380
0380
0300
6300
F600
FC00
7800
ENDCHAR

STARTCHAR k
ENCODING 107
SWIDTH 593 0
DWIDTH 23 0
BBX 21 28 1 0
BITMAP
1E0000
FE0000
1E0000
0E0000
0E0000
0E0000
0E0000
0E0000
0E0000
0E0000
0E1FF0
0E1FE0
0E0300
0E0600
0E0C00
0E1800
0E3000
0E7000
0EF800
0FBC00
0F1C00
0E0E00
0E0F00
0E0780
0E0380
0E01C0
1F03E0
7FCFF8
ENDCHAR

STARTCHAR l
ENCODING 108
SWIDTH 315 0
DWIDTH 12 0
BBX 10 28 1 0
BITMAP
1E00
FE00
1E00
0E00
0E00
0E00
0E00
0E00
0E00
0E00
0E00
0E00
0E00
0E00
0E00
0E00
0E00
0E00
0E00
0E00
0E00
0E00
0E00
0E00
0E00
0E00
1E00
FFC0
ENDCHAR

STARTCHAR m
ENCODING 109
SWIDTH 889 0
DWIDTH 34 0
BBX 31 18 2 0
BITMAP
1C180300
7C7E1FC0
3DFF3FE0
1D0760F0
1E07C0F0
1E03C070
1C038070
1C038070
1C038070
1C038070
1C038070
1C038070
1C038070
1C038070
1C038070
1C038070
3E07C0F8
FF9FF3FE
ENDCHAR

STARTCHAR n
ENCODING 110
SWIDTH 611 0
DWIDTH 23 0
BBX 21 18 1 0
BITMAP
3C1C00
FC7F00
3CFF80
1D87C0
1E03C0
1E01C0
1C01C0
1C01C0
1C01C0
1C01C0
1C01C0
1C01C0
1C01C0
1C01C0
1C01C0
1C01C0
3E03E0
FF8FF8
ENDCHAR

STARTCHAR o
ENCODING 111
SWIDTH 500 0
DWIDTH 19 0
BBX 16 18 2 0
BITMAP
07E0
1C38
381C
700E
700E
F00F
E007
E007
E007
E007
E007
E007
F00F
700E
700E
381C
1C38
07E0
ENDCHAR

STARTCHAR p
ENCODING 112
SWIDTH 574 0
DWIDTH 22 0
BBX 19 25 1 -7
BITMAP
3C3800
FCFE00
1D0780
1F0380
1E01C0
1E01C0
1C01E0
1C01E0
1C01E0
1C01E0
1C01E0
1C01E0
1E01C0
1E03C0
1F0380
1D8780
1CFE00
1C7C00
1C0000
1C0000
1C0000
1C0000
1C0000
3E0000
FF8000
ENDCHAR

STARTCHAR q
ENCODING 113
SWIDTH 556 0
DWIDTH 21 0
BBX 19 25 2 -7
BITMAP
07E180
1E3900
381D00
380F00
700F00
700700
F00700
F00700
F00700
F00700
F00700
F00700
700700
780F00
380F00
1C3700
0FE700
07C700
000700
000700
000700
000700
000700
000F80
003FE0
ENDCHAR

STARTCHAR r
ENCODING 114
SWIDTH 444 0
DWIDTH 17 0
BBX 16 18 0 0
BITMAP
3E0C
FE3E
1E6F
0ECF
0E8F
0F86
0F00
0F00
0F00
0E00
0E00
0E00
0E00
0E00
0E00
0E00
1F00
FFE0
ENDCHAR

STARTCHAR s
ENCODING 115
SWIDTH 463 0
DWIDTH 18 0
BBX 14 18 2 0
BITMAP
1F98
30F8
6038
C018
C018
E008
F000
7F80
7FF0
1FF8
01FC
801C
C00C
C00C
E00C
F018
DC70
CFE0
ENDCHAR

STARTCHAR t
ENCODING 116
SWIDTH 389 0
DWIDTH 15 0
BBX 13 25 1 0
BITMAP
0400
0400
0400
0C00
0C00
1C00
3C00
FFF0
FFF0
1C00
1C00
1C00
1C00
1C00
1C00
1C00
1C00
1C00
1C08
1C08
1C18
1C10
1E30
0FE0
03C0
ENDCHAR

STARTCHAR u
ENCODING 117
SWIDTH 611 0
DWIDTH 23 0
BBX 21 18 1 0
BITMAP
3C03C0
FC0FC0
3C03C0
1C01C0
1C01C0
1C01C0
1C01C0
1C01C0
1C01C0
1C01C0
1C01C0
1C01C0
1C03C0
1E03C0
0E05C0
0FF9E0
07F1F8
01C000
ENDCHAR

STARTCHAR v
ENCODING 118
SWIDTH 537 0
DWIDTH 20 0
BBX 19 18 1 0
BITMAP
FF0FE0
FE07E0
380380
3C0100
1C0300
1E0200
0E0600
0F0600
070C00
070C00
038800
039800
03D000
01F000
01E000
00E000
00E000
004000
ENDCHAR

STARTCHAR w
ENCODING 119
SWIDTH 778 0
DWIDTH 30 0
BBX 28 18 1 0
BITMAP
FF3FC7F0
3C0F01E0
3C0701C0
1C070180
1C078180
1E0F8100
0E0BC300
0F19C300
0719C600
0711E600
07B0E400
03B0FC00
03E07C00
01E07800
01E07800
00C03800
00C03000
00C01000
ENDCHAR

STARTCHAR x
ENCODING 120
SWIDTH 537 0
DWIDTH 20 0
BBX 19 18 1 0
BITMAP
FF9FC0
7F1FC0
1E0600
1E0400
0F0C00
079800
03B000
03E000
01E000
00F000
01F000
017800
023C00
061E00
0C0E00
1C0700
7C0F80
FF3FE0
ENDCHAR

STARTCHAR y
ENCODING 121
SWIDTH 537 0
DWIDTH 20 0
BBX 19 25 1 -7
BITMAP
FF0FE0
7C03C0
3C0180
1C0100
1C0300
0E0200
0E0600
070400
070400
078C00
038800
03D800
01D000
01F000
00E000
00E000
006000
004000
00C000
008000
618000
E30000
E60000
FC0000
700000
ENDCHAR

STARTCHAR z
ENCODING 122
SWIDTH 481 0
DWIDTH 18 0
BBX 15 18 2 0
BITMAP
7FFE
701C
603C
6078
C0F0
C0E0
01E0
03C0
0380
0780
0F00
0E02
1E06
3C06
7806
780E
F03E
FFFC
ENDCHAR

STARTCHAR braceleft
ENCODING 123
SWIDTH 333 0
DWIDTH 13 0
BBX 10 35 2 -7
BITMAP
00C0
0300
0600
0C00
0C00
1C00
1C00
1C00
1E00
1E00
0E00
0E00
0E00
0C00
0C00
1800
3000
C000
6000
1800
0C00
0C00
0E00
0E00
0E00
1E00
1E00
1C00
1C00
1C00
0C00
0C00
0600
0300
01C0
ENDCHAR

STARTCHAR bar
ENCODING 124
SWIDTH 606 0
DWIDTH 23 0
BBX 2 32 10 -4
BITMAP
C0
C0
C0
C0
C0
C0
C0
C0
C0
C0
C0
C0
C0
C0
C0
C0
C0
C0
C0
C0
C0
C0
C0
C0
C0
C0
C0
C0
C0
C0
C0
C0
ENDCHAR

STARTCHAR braceright
ENCODING 125
SWIDTH 333 0
DWIDTH 13 0
BBX 10 35 0 -7
BITMAP
C000
3000
1800
0C00
0C00
0E00
0E00
0E00
1E00
1E00
1C00
1C00
1C00
0C00
0C00
0600
0300
00C0
0180
0600
0C00
0C00
1C00
1C00
1C00
1E00
1E00
0E00
0E00
0E00
0C00
0C00
1800
3000
E000
ENDCHAR

STARTCHAR asciitilde
ENCODING 126
SWIDTH 606 0
DWIDTH 23 0
BBX 21 5 1 10
BITMAP
1F8008
3FE018
61FC30
403FE0
C007C0
ENDCHAR

STARTCHAR space
ENCODING 160
SWIDTH 278 0
DWIDTH 13 0
BBX 0 0 0 0
BITMAP
ENDCHAR

STARTCHAR Aogonek
ENCODING 161
SWIDTH 722 0
DWIDTH 27 0
BBX 30 35 -1 -7
BITMAP
00020000
00070000
00070000
00070000
000F8000
000F8000
001BC000
001BC000
0013C000
0031E000
0021E000
0060F000
0060F000
0040F000
00C07800
00807800
01803C00
01003C00
01FFFC00
03001E00
02001E00
06000F00
06000F00
04000F00
0C000780
1C000780
3F000FC0
FFC07FF0
00000200
00000600
00000600
00000700
00000780
000003FC
000001E0
ENDCHAR

STARTCHAR breve
ENCODING 162
SWIDTH 333 0
DWIDTH 13 0
BBX 11 6 1 22
BITMAP
8060
C060
F3C0
7FC0
7F80
3F00
ENDCHAR

STARTCHAR Lslash
ENCODING 163
SWIDTH 667 0
DWIDTH 25 0
BBX 23 28 1 0
BITMAP
FFF000
1F8000
0F0000
0F0000
0F0000
0F0000
0F0100
0F0300
0F0F00
0F1C00
0F7000
0FE000
0F8000
0F0000
1F0000
7F0000
EF0000
8F0002
0F0002
0F0006
0F0006
0F0006
0F000E
0F000E
0F001E
0F003E
1F80FE
FFFFFE
ENDCHAR

STARTCHAR currency
ENCODING 164
SWIDTH 606 0
DWIDTH 23 0
BBX 19 19 2 3
BITMAP
400040
E3F8E0
77FEC0
1F1F00
3C0780
380380
7001C0
7000C0
6000C0
6000C0
6000C0
7001C0
7001C0
380380
1C0700
3F1F80
77FEC0
E3F8E0
400040
ENDCHAR

STARTCHAR Lcaron
ENCODING 165
SWIDTH 667 0
DWIDTH 25 0
BBX 24 29 1 0
BITMAP
000060
FFF8F0
1F80F8
0F00F8
0F0078
0F0018
0F0010
0F0030
0F0060
0F01C0
0F0080
0F0000
0F0000
0F0000
0F0000
0F0000
0F0000
0F0000
0F0003
0F0003
0F0002
0F0006
0F0006
0F0006
0F000E
0F001E
0F003E
1F80FE
FFFFFE
ENDCHAR

STARTCHAR Sacute
ENCODING 166
SWIDTH 630 0
DWIDTH 24 0
BBX 20 37 2 0
BITMAP
000E00
001E00
003C00
003800
007000
00C000
018000
000000
000000
07F040
0E1CC0
1807C0
3003C0
7001C0
6001C0
6000C0
6000C0
700040
780040
7C0000
3FC000
3FFC00
1FFF00
07FFC0
00FFE0
000FE0
C001F0
C000F0
C00070
E00070
E00070
F00060
F00060
F800C0
F601C0
E78700
C1FC00
ENDCHAR

STARTCHAR section
ENCODING 167
SWIDTH 500 0
DWIDTH 19 0
BBX 14 35 2 -7
BITMAP
07E0
1C30
3838
3078
7078
7030
7800
3800
3C00
1E00
0F80
1FC0
37E0
61F0
C0F8
C078
C03C
E01C
F00C
780C
7C0C
3F18
1FB8
0FE0
03E0
01F0
00F0
0078
0038
3838
7838
7830
7070
30E0
0F80
ENDCHAR

STARTCHAR dieresis
ENCODING 168
SWIDTH 333 0
DWIDTH 13 0
BBX 11 4 1 21
BITMAP
60C0
F1E0
F1E0
60C0
ENDCHAR

STARTCHAR Scaron
ENCODING 169
SWIDTH 630 0
DWIDTH 24 0
BBX 20 37 2 0
BITMAP
060600
030C00
019800
01D800
00F000
006000
000000
000000
000000
07F040
0E1CC0
1807C0
3003C0
7001C0
6001C0
6000C0
6000C0
700040
780040
7C0000
3FC000
3FFC00
1FFF00
07FFC0
00FFE0
000FE0
C001F0
C000F0
C00070
E00070
E00070
F00060
F00060
F800C0
F601C0
E78700
C1FC00
ENDCHAR

STARTCHAR Scommaaccent
ENCODING 170
SWIDTH 630 0
DWIDTH 24 0
BBX 20 35 2 -7
BITMAP
07F0C0
0E1CC0
1807C0
3003C0
7001C0
6001C0
6000C0
6000C0
700040
780040
7C0000
3FC000
3FFC00
1FFF00
07FFC0
00FFE0
000FE0
C001F0
C000F0
C00070
E00070
E00070
F00060
F00060
F800C0
F601C0
E78700
C1FC00
000000
006000
00F000
007000
001000
002000
004000
ENDCHAR

STARTCHAR Tcaron
ENCODING 171
SWIDTH 667 0
DWIDTH 25 0
BBX 24 38 1 0
BITMAP
010080
008100
00C300
006600
003C00
003C00
001800
000000
000000
000000
7FFFFE
7C3C3E
783C1E
703C0E
603C06
603C06
C03C03
C03C03
C03C03
C03C03
C03C03
003C00
003C00
003C00
003C00
003C00
003C00
003C00
003C00
003C00
003C00
003C00
003C00
003C00
003C00
003C00
007E00
03FFC0
ENDCHAR

STARTCHAR Zacute
ENCODING 172
SWIDTH 611 0
DWIDTH 23 0
BBX 21 38 1 0
BITMAP
000600
000E00
001E00
003C00
003800
006000
00C000
008000
000000
000000
3FFFF8
3F00F0
3C01F0
3801E0
3003C0
7003C0
600780
600F80
600F00
601E00
003E00
003C00
007C00
007800
00F000
01F000
01E000
03C000
03C018
078018
0F8018
0F0038
1E0038
3E0070
3C0070
7C00F0
7807F0
FFFFF0
ENDCHAR

STARTCHAR hyphen
ENCODING 173
SWIDTH 333 0
DWIDTH 13 0
BBX 8 3 2 7
BITMAP
FF
FF
FF
ENDCHAR

STARTCHAR Zcaron
ENCODING 174
SWIDTH 611 0
DWIDTH 23 0
BBX 21 38 1 0
BITMAP
060300
030600
018C00
00DC00
00F800
007000
003000
000000
000000
000000
3FFFF8
3F00F0
3C01F0
3801E0
3003C0
7003C0
600780
600F80
600F00
601E00
003E00
003C00
007C00
007800
00F000
01F000
01E000
03C000
03C018
078018
0F8018
0F0038
1E0038
3E0070
3C0070
7C00F0
7807F0
FFFFF0
ENDCHAR

STARTCHAR Zdotaccent
ENCODING 175
SWIDTH 611 0
DWIDTH 23 0
BBX 20 35 2 0
BITMAP
006000
00F000
00F000
006000
000000
000000
000000
7FFFF0
7F01F0
7801E0
7003E0
7003C0
600780
600F80
400F00
401E00
401E00
003C00
007C00
007800
00F000
01F000
01E000
03E000
03C000
078010
0F8030
0F0030
1E0030
1E0070
3C0070
7C00F0
7801F0
F007F0
FFFFF0
ENDCHAR

STARTCHAR degree
ENCODING 176
SWIDTH 400 0
DWIDTH 15 0
BBX 11 11 2 15
BITMAP
1F00
3F80
71C0
E0E0
C060
C060
C060
E0E0
71C0
3F80
1F00
ENDCHAR

STARTCHAR aogonek
ENCODING 177
SWIDTH 556 0
DWIDTH 21 0
BBX 21 25 2 -7
BITMAP
0FF800
1C7C00
301E00
700E00
780E00
780E00
300E00
003E00
07EE00
1E0E00
380E00
700E00
F00E00
E01E00
E01E00
F03720
78E3E0
3F87C0
000400
000C00
000C00
000E00
000F00
0007F8
0003C0
ENDCHAR

STARTCHAR ogonek
ENCODING 178
SWIDTH 333 0
DWIDTH 13 0
BBX 9 8 3 -7
BITMAP
2000
4000
C000
C000
E000
F000
7F80
3C00
ENDCHAR

STARTCHAR lslash
ENCODING 179
SWIDTH 315 0
DWIDTH 12 0
BBX 10 28 0 0
BITMAP
1E00
FE00
1E00
0E00
0E00
0E00
0E00
0E00
0E40
0E40
0F80
0F00
0E00
0E00
3E00
6E00
CE00
8E00
0E00
0E00
0E00
0E00
0E00
0E00
0E00
0E00
1E00
FFC0
ENDCHAR

STARTCHAR acute
ENCODING 180
SWIDTH 333 0
DWIDTH 13 0
BBX 7 8 4 20
BITMAP
06
0E
1E
3C
38
60
C0
80
ENDCHAR

STARTCHAR lcaron
ENCODING 181
SWIDTH 385 0
DWIDTH 15 0
BBX 13 28 1 0
BITMAP
FE70
FE78
1E78
0E18
0E08
0E10
0E30
0E40
0E00
0E00
0E00
0E00
0E00
0E00
0E00
0E00
0E00
0E00
0E00
0E00
0E00
0E00
0E00
0E00
0E00
0E00
1F00
7FC0
ENDCHAR

STARTCHAR sacute
ENCODING 182
SWIDTH 463 0
DWIDTH 18 0
BBX 14 28 2 0
BITMAP
0070
00F0
01E0
03C0
0300
0600
0C00
0000
0000
0000
1F98
30F8
6038
C018
C018
E008
F000
7F00
7FF0
1FF8
01FC
801C
C00C
C00C
E00C
F018
FC70
CFE0
ENDCHAR

STARTCHAR caron
ENCODING 183
SWIDTH 333 0
DWIDTH 13 0
BBX 11 7 1 21
BITMAP
C060
60C0
3180
3B00
1F00
0E00
0C00
ENDCHAR

STARTCHAR commaaccent
ENCODING 184
SWIDTH 333 0
DWIDTH 13 0
BBX 4 6 4 -8
BITMAP
E0
F0
F0
10
20
40
ENDCHAR

STARTCHAR scaron
ENCODING 185
SWIDTH 463 0
DWIDTH 18 0
BBX 14 28 2 0
BITMAP
3030
1860
1CC0
0FC0
0780
0300
0000
0000
0000
0000
1F98
30F8
6038
C018
C018
E008
F000
7F80
7FF0
1FF8
01FC
801C
C00C
C00C
E00C
F018
FC70
CFE0
ENDCHAR

STARTCHAR scommaaccent
ENCODING 186
SWIDTH 463 0
DWIDTH 18 0
BBX 14 26 2 -8
BITMAP
1F98
30F8
6038
C018
C018
E008
F000
7F00
7FF0
1FF8
01FC
801C
C00C
C00C
E00C
F018
FC70
CFE0
0000
0000
0700
0780
0780
0080
0100
0200
ENDCHAR

STARTCHAR tcaron
ENCODING 187
SWIDTH 461 0
DWIDTH 18 0
BBX 13 28 2 0
BITMAP
0078
0078
0078
0408
0418
0410
0C20
0C40
1C00
3C00
FFE0
FFE0
1C00
1C00
1C00
1C00
1C00
1C00
1C00
1C00
1C00
1C18
1C18
1C10
1C10
1E30
0FE0
0780
ENDCHAR

STARTCHAR zacute
ENCODING 188
SWIDTH 481 0
DWIDTH 18 0
BBX 15 29 2 0
BITMAP
0020
0070
00F0
01E0
01C0
0300
0600
0C00
0000
0000
0000
7FFE
701C
603C
6078
C0F0
C0E0
01E0
03C0
0380
0780
0F00
0E02
1E06
3C06
7806
780E
F03E
FFFC
ENDCHAR

STARTCHAR hungarumlaut
ENCODING 189
SWIDTH 333 0
DWIDTH 13 0
BBX 15 8 2 20
BITMAP
060C
0E1E
1E1E
3C38
3870
60E0
C180
8080
ENDCHAR

STARTCHAR zcaron
ENCODING 190
SWIDTH 481 0
DWIDTH 18 0
BBX 15 29 2 0
BITMAP
2018
1030
0C60
0EC0
07C0
0380
0300
0000
0000
0000
0000
7FFE
701C
603C
6078
C0F0
C0E0
01E0
03C0
0380
0780
0F00
0E02
1E06
3C06
7806
780E
F03E
FFFC
ENDCHAR

STARTCHAR zdotaccent
ENCODING 191
SWIDTH 481 0
DWIDTH 18 0
BBX 15 26 2 0
BITMAP
0300
0780
0780
0300
0000
0000
0000
0000
FFFC
F03C
E078
C070
C0F0
C1E0
01C0
03C0
0780
0700
0F00
1E06
1C04
3C04
780C
F00C
F03C
FFFC
ENDCHAR

STARTCHAR Racute
ENCODING 192
SWIDTH 722 0
DWIDTH 27 0
BBX 25 38 2 0
BITMAP
00038000
00078000
00078000
000F0000
001C0000
00180000
00300000
00200000
00000000
00000000
FFFFC000
0F81F000
0F007800
0F007800
0F003C00
0F003C00
0F003C00
0F003C00
0F003C00
0F003C00
0F007800
0F00F000
0F03E000
0FFE0000
0F070000
0F03C000
0F01C000
0F01E000
0F00E000
0F00F000
0F00F000
0F00F080
0F00F080
0F00F880
0F007980
0F007F00
1F803F00
FFF01C00
ENDCHAR

STARTCHAR Aacute
ENCODING 193
SWIDTH 722 0
DWIDTH 27 0
BBX 28 37 0 0
BITMAP
0000C000
0001C000
0003C000
00038000
00070000
000E0000
00180000
00100000
00000000
00060000
00060000
000E0000
000F0000
000F0000
001F8000
00178000
00338000
0033C000
0023C000
0061E000
0041E000
00C1E000
00C0F000
0080F000
01807800
01007800
03003800
03FFFC00
02003C00
06001E00
04001E00
0C001E00
0C000F00
18000F00
1C000F80
7E000FC0
FFC07FF0
ENDCHAR

STARTCHAR Acircumflex
ENCODING 194
SWIDTH 722 0
DWIDTH 27 0
BBX 28 37 0 0
BITMAP
00060000
000E0000
001F0000
001B8000
00318000
0060C000
00406000
00000000
00000000
00060000
00060000
000E0000
000F0000
000F0000
001F8000
00178000
00338000
0033C000
0023C000
0061E000
0041E000
00C1E000
00C0F000
0080F000
01807800
01007800
03007800
03FFFC00
02003C00
06001E00
04001E00
0C001E00
0C000F00
18000F00
1C000F80
7E000FC0
FFC07FF0
ENDCHAR

STARTCHAR Abreve
ENCODING 195
SWIDTH 722 0
DWIDTH 27 0
BBX 28 36 0 0
BITMAP
00802000
00C06000
0060E000
007FC000
003FC000
001F0000
00000000
00000000
00000000
00060000
00060000
000F0000
000F0000
001F0000
00178000
00378000
0033C000
0023C000
0061C000
0041E000
00C1E000
00C0F000
0080F000
01807000
01007800
03003800
03FFFC00
02003C00
06001C00
04001E00
0C001E00
0C000F00
18000F00
1C000F80
7E000FC0
FFC07FF0
ENDCHAR

STARTCHAR Adieresis
ENCODING 196
SWIDTH 722 0
DWIDTH 27 0
BBX 27 34 0 0
BITMAP
0060C000
00F1E000
00F1E000
0060C000
00000000
00000000
00040000
00060000
000E0000
000F0000
001F0000
001F0000
00178000
00378000
0023C000
0063C000
0063C000
0041E000
00C1E000
0080F000
0180F000
0180F000
01007800
03007800
03FFFC00
06003C00
06003C00
04001E00
0C001E00
0C001E00
18000F00
1C000F00
7E001F80
FFC0FFE0
ENDCHAR

STARTCHAR Lacute
ENCODING 197
SWIDTH 667 0
DWIDTH 25 0
BBX 23 38 1 0
BITMAP
000300
000700
000F00
001E00
001C00
003000
006000
004000
000000
000000
FFF000
1F8000
0F0000
0F0000
0F0000
0F0000
0F0000
0F0000
0F0000
0F0000
0F0000
0F0000
0F0000
0F0000
0F0000
0F0000
0F0000
0F0002
0F0002
0F0006
0F0006
0F0006
0F000E
0F000E
0F001E
0F003E
1F80FE
FFFFFE
ENDCHAR

STARTCHAR Cacute
ENCODING 198
SWIDTH 722 0
DWIDTH 27 0
BBX 23 37 2 0
BITMAP
000700
000700
000F00
001E00
003800
003000
004000
000000
000000
00FF0C
01E1CC
07807C
0F003C
1E001C
1C001C
3C000C
3C000C
780004
780004
780004
F80000
F80000
F80000
F80000
F80000
F80000
780000
780002
780006
3C0006
3C0004
1E000C
0E0018
070038
03C060
01FFC0
003E00
ENDCHAR

STARTCHAR Ccedilla
ENCODING 199
SWIDTH 722 0
DWIDTH 27 0
BBX 23 35 3 -7
BITMAP
00FF0C
01C1CC
0780FC
0F003C
1E003C
1C001C
3C000C
3C000C
78000C
780004
780004
F80000
F80000
F80000
F80000
F80000
F80000
780000
780002
780006
7C0004
3C0004
3C000C
1E0008
0F0018
078030
03E1E0
00FF80
001C00
001F00
000700
000700
000700
001E00
007C00
ENDCHAR

STARTCHAR Ccaron
ENCODING 200
SWIDTH 722 0
DWIDTH 27 0
BBX 23 37 2 0
BITMAP
010180
008300
00C600
007400
003C00
003800
000000
000000
000000
00FF0C
01E1CC
07807C
0F003C
1E001C
1C001C
3C000C
3C000C
780004
780004
780004
F80000
F80000
F80000
F80000
F80000
F80000
780000
780002
780006
3C0006
3C0004
1E000C
0E0018
070038
03C060
01FFC0
003E00
ENDCHAR

STARTCHAR Eacute
ENCODING 201
SWIDTH 722 0
DWIDTH 27 0
BBX 23 38 2 0
BITMAP
000300
000700
000F00
001E00
001C00
003000
006000
004000
000000
000000
FFFFFC
1F007C
0F003C
0F001C
0F000C
0F000C
0F0004
0F0104
0F0104
0F0300
0F0300
0F0700
0F0F00
0FFF00
0F0F00
0F0700
0F0300
0F0300
0F0102
0F0102
0F0006
0F0006
0F0006
0F000E
0F001E
0F003E
1F00FE
FFFFFE
ENDCHAR

STARTCHAR Eogonek
ENCODING 202
SWIDTH 722 0
DWIDTH 27 0
BBX 25 35 2 -7
BITMAP
FFFFFC00
1F007C00
0F001C00
0F001C00
0F000C00
0F000C00
0F000600
0F010600
0F010600
0F030000
0F030000
0F070000
0F0F0000
0FFF0000
0F0F0000
0F070000
0F030000
0F030000
0F010200
0F010200
0F000200
0F000600
0F000600
0F000E00
0F000E00
0F003E00
1F00FE00
FFFFFE00
00004000
0000C000
0000C000
0000E000
0000F000
00007F80
00003C00
ENDCHAR

STARTCHAR Edieresis
ENCODING 203
SWIDTH 722 0
DWIDTH 27 0
BBX 23 35 2 0
BITMAP
018300
03C780
03C780
018300
000000
000000
000000
FFFFFC
1F00FC
0F003C
0F001C
0F001C
0F000C
0F000C
0F0304
0F0304
0F0300
0F0300
0F0700
0F0F00
0FFF00
0F0F00
0F0700
0F0300
0F0300
0F0302
0F0306
0F0006
0F0006
0F000E
0F000E
0F001E
0F003E
1F00FE
FFFFFE
ENDCHAR

STARTCHAR Ecaron
ENCODING 204
SWIDTH 722 0
DWIDTH 27 0
BBX 23 38 2 0
BITMAP
010180
018300
00C600
006E00
007C00
003800
001800
000000
000000
000000
FFFFFC
1F007C
0F003C
0F001C
0F000C
0F000C
0F0004
0F0104
0F0104
0F0300
0F0300
0F0700
0F0F00
0FFF00
0F0F00
0F0700
0F0300
0F0300
0F0102
0F0102
0F0006
0F0006
0F0006
0F000E
0F001E
0F003E
1F00FE
FFFFFE
ENDCHAR

STARTCHAR Iacute
ENCODING 205
SWIDTH 407 0
DWIDTH 15 0
BBX 12 38 2 0
BITMAP
00C0
01E0
03C0
0380
0700
0E00
0800
1000
0000
0000
FFF0
1F80
0F00
0F00
0F00
0F00
0F00
0F00
0F00
0F00
0F00
0F00
0F00
0F00
0F00
0F00
0F00
0F00
0F00
0F00
0F00
0F00
0F00
0F00
0F00
0F00
1F80
FFF0
ENDCHAR

STARTCHAR Icircumflex
ENCODING 206
SWIDTH 407 0
DWIDTH 15 0
BBX 12 38 2 0
BITMAP
0600
0F00
0F00
1980
30C0
2040
4020
0000
0000
0000
FFF0
1F80
0F00
0F00
0F00
0F00
0F00
0F00
0F00
0F00
0F00
0F00
0F00
0F00
0F00
0F00
0F00
0F00
0F00
0F00
0F00
0F00
0F00
0F00
0F00
0F00
1F80
FFF0
ENDCHAR

STARTCHAR Dcaron
ENCODING 207
SWIDTH 778 0
DWIDTH 30 0
BBX 26 38 1 0
BITMAP
00804000
00C08000
00618000
00370000
001E0000
001E0000
000C0000
00000000
00000000
00000000
FFFFE000
1F81F000
0F003C00
0F001E00
0F000F00
0F000F00
0F000780
0F000780
0F0007C0
0F0007C0
0F0003C0
0F0003C0
0F0003C0
0F0003C0
0F0003C0
0F0003C0
0F0003C0
0F0003C0
0F0007C0
0F0007C0
0F000780
0F000780
0F000F00
0F000F00
0F001E00
0F003C00
1F81F000
FFFFC000
ENDCHAR

STARTCHAR Dcroat
ENCODING 208
SWIDTH 778 0
DWIDTH 30 0
BBX 26 28 1 0
BITMAP
FFFFE000
1F81F800
0F003C00
0F001E00
0F000F00
0F000F00
0F000780
0F000780
0F0007C0
0F0007C0
0F0007C0
0F0003C0
0F0003C0
FFF803C0
FFF803C0
0F0003C0
0F0003C0
0F0003C0
0F0007C0
0F0007C0
0F000780
0F000780
0F000F00
0F000F00
0F001E00
0F003C00
1F81F000
FFFFC000
ENDCHAR

STARTCHAR Nacute
ENCODING 209
SWIDTH 815 0
DWIDTH 31 0
BBX 29 38 2 0
BITMAP
00006000
0000E000
0001E000
0003C000
00070000
00060000
001C0000
00080000
00000000
00000000
FE001FF8
1F0007E0
0F8003C0
0F800180
0FC00180
0DE00180
0DF00180
0CF00180
0CF80180
0C7C0180
0C3E0180
0C1E0180
0C1F0180
0C0F8180
0C07C180
0C03C180
0C03E180
0C01F180
0C00F980
0C007980
0C007D80
0C003F80
0C001F80
0C000F80
0C000F80
1E000780
FFC00380
FFC00180
ENDCHAR

STARTCHAR Ncaron
ENCODING 210
SWIDTH 815 0
DWIDTH 31 0
BBX 29 38 2 0
BITMAP
00603000
00306000
0018C000
001D8000
000F8000
00070000
00060000
00000000
00000000
00000000
FE001FF8
1F0007E0
0F8003C0
0F800180
0FC00180
0DE00180
0DF00180
0CF00180
0CF80180
0C7C0180
0C3E0180
0C1E0180
0C1F0180
0C0F8180
0C07C180
0C03C180
0C03E180
0C01F180
0C00F980
0C007980
0C007D80
0C003F80
0C001F80
0C000F80
0C000F80
1E000780
FFC00380
FFC00180
ENDCHAR

STARTCHAR Oacute
ENCODING 211
SWIDTH 778 0
DWIDTH 30 0
BBX 26 37 2 0
BITMAP
0001C000
0003C000
00078000
000F0000
000E0000
00180000
00300000
00000000
00000000
007F8000
01E1E000
07807800
0F003C00
1E001E00
1C000F00
3C000F00
3C000F80
78000780
78000780
780007C0
F80007C0
F80007C0
F80007C0
F80007C0
F80007C0
F80007C0
78000780
78000780
78000780
3C000F00
3C000F00
1C000E00
1E001E00
0F003C00
07807800
01E1E000
007F8000
ENDCHAR

STARTCHAR Ocircumflex
ENCODING 212
SWIDTH 778 0
DWIDTH 30 0
BBX 26 37 2 0
BITMAP
000C0000
001E0000
003F0000
00330000
00618000
00C0C000
00000000
00000000
00000000
007F8000
01E1E000
07807800
0F003C00
1E001E00
1C000F00
3C000F00
3C000F80
78000780
78000780
780007C0
F80007C0
F80007C0
F80007C0
F80007C0
F80007C0
F80007C0
78000780
78000780
78000780
3C000F00
3C000F00
1C000E00
1E001E00
0F003C00
07807800
01E1E000
007F8000
ENDCHAR

STARTCHAR Ohungarumlaut
ENCODING 213
SWIDTH 778 0
DWIDTH 30 0
BBX 26 37 2 0
BITMAP
000E1C00
001E3C00
003C3C00
00787000
0070E000
00C0C000
01810000
00000000
00000000
007F8000
01E1E000
07807800
0F003C00
1E001E00
1C000F00
3C000F00
3C000F80
78000780
78000780
780007C0
F80007C0
F80007C0
F80007C0
F80007C0
F80007C0
F80007C0
78000780
78000780
78000780
3C000F00
3C000F00
1C000E00
1E001E00
0F003C00
07807800
01E1E000
007F8000
ENDCHAR

STARTCHAR Odieresis
ENCODING 214
SWIDTH 778 0
DWIDTH 30 0
BBX 25 35 2 0
BITMAP
00C18000
01E3C000
01E3C000
00C18000
00000000
00000000
00000000
00FF8000
03C1E000
07807000
0E003800
1E003C00
3C001E00
3C001E00
7C000F00
78000F00
78000F00
78000F80
F8000F80
F8000F80
F8000F80
F8000F80
F8000F80
F8000F80
78000F00
78000F00
78000F00
3C000F00
3C001E00
1C001E00
1E003C00
0E003800
0780F000
01C3C000
007F0000
ENDCHAR

STARTCHAR multiply
ENCODING 215
SWIDTH 606 0
DWIDTH 23 0
BBX 19 19 2 3
BITMAP
6000C0
F001E0
7803C0
3C0780
1E0F00
0F1E00
07BC00
03F800
00E000
01F000
03F800
07BC00
0F1E00
1E0F00
3C0780
7803C0
F001E0
6000C0
200040
ENDCHAR

STARTCHAR Rcaron
ENCODING 216
SWIDTH 722 0
DWIDTH 27 0
BBX 25 38 2 0
BITMAP
01808000
00C18000
00630000
00760000
003E0000
001C0000
00180000
00000000
00000000
00000000
FFFFC000
0F81F000
0F007800
0F007800
0F003C00
0F003C00
0F003C00
0F003C00
0F003C00
0F003C00
0F007800
0F00F000
0F03E000
0FFE0000
0F070000
0F03C000
0F01C000
0F01E000
0F00E000
0F00F000
0F00F000
0F00F080
0F00F080
0F00F880
0F007980
0F007F00
1F803F00
FFF01C00
ENDCHAR

STARTCHAR Uring
ENCODING 217
SWIDTH 815 0
DWIDTH 31 0
BBX 28 38 2 0
BITMAP
000F0000
00198000
0030C000
0030C000
0030C000
00198000
000F0000
00000000
00000000
00000000
FFF03FF0
0F0007C0
0F000780
0F000300
0F000300
0F000300
0F000300
0F000300
0F000300
0F000300
0F000300
0F000300
0F000300
0F000300
0F000300
0F000300
0F000300
0F000300
0F000300
0F000300
0F000300
0F000300
07800600
07800600
07C00C00
03F07800
00FFF000
003FC000
ENDCHAR

STARTCHAR Uacute
ENCODING 218
SWIDTH 815 0
DWIDTH 31 0
BBX 29 38 1 0
BITMAP
00006000
0000E000
0001E000
0003C000
00078000
00060000
000C0000
00080000
00000000
00000000
FFF01FF8
0F8007E0
0F0003C0
0F000180
0F000180
0F000180
0F000180
0F000180
0F000180
0F000180
0F000180
0F000180
0F000180
0F000180
0F000180
0F000180
0F000180
0F000180
0F000180
0F000180
0F000180
0F000180
07800300
07800300
03C00E00
03F03C00
00FFF800
003FE000
ENDCHAR

STARTCHAR Uhungarumlaut
ENCODING 219
SWIDTH 815 0
DWIDTH 31 0
BBX 29 38 1 0
BITMAP
00030600
00070F00
000F1E00
001E1C00
00383800
00307000
00E04000
00408000
00000000
00000000
FFF01FF8
0F8007E0
0F0003C0
0F000180
0F000180
0F000180
0F000180
0F000180
0F000180
0F000180
0F000180
0F000180
0F000180
0F000180
0F000180
0F000180
0F000180
0F000180
0F000180
0F000180
0F000180
0F000180
07800300
07800300
03C00E00
03F03C00
00FFF800
003FE000
ENDCHAR

STARTCHAR Udieresis
ENCODING 220
SWIDTH 815 0
DWIDTH 31 0
BBX 29 35 1 0
BITMAP
00306000
0078F000
0078F000
00306000
00000000
00000000
00000000
FFF81FF8
0F8007E0
0F0003C0
0F000180
0F000180
0F000180
0F000180
0F000180
0F000180
0F000180
0F000180
0F000180
0F000180
0F000180
0F000180
0F000180
0F000180
0F000180
0F000180
0F000180
0F000180
0F800180
07800300
07C00700
03E00E00
03F03C00
00FFF800
003FE000
ENDCHAR

STARTCHAR Yacute
ENCODING 221
SWIDTH 704 0
DWIDTH 27 0
BBX 27 38 0 0
BITMAP
0000C000
0001C000
0003C000
00078000
000E0000
000C0000
00180000
00100000
00000000
00000000
FFF07FE0
3F001F80
1F000F00
0F000E00
07800C00
07C00C00
03C01800
03E01800
01E03000
00F03000
00F86000
0078E000
003CC000
003F8000
001F8000
001F0000
000F0000
000F0000
000F0000
000F0000
000F0000
000F0000
000F0000
000F0000
000F0000
000F0000
001F8000
00FFF000
ENDCHAR

STARTCHAR Tcommaaccent
ENCODING 222
SWIDTH 667 0
DWIDTH 25 0
BBX 24 36 1 -8
BITMAP
7FFFFE
7C3C3E
783C1E
703C0E
603C06
603C06
C03C03
C03C03
C03C03
C03C03
C03C03
003C00
003C00
003C00
003C00
003C00
003C00
003C00
003C00
003C00
003C00
003C00
003C00
003C00
003C00
003C00
007E00
03FFC0
000000
000000
003800
003C00
003C00
000400
000800
001000
ENDCHAR

STARTCHAR germandbls
ENCODING 223
SWIDTH 574 0
DWIDTH 22 0
BBX 19 28 2 0
BITMAP
01FC00
078E00
0E0700
0E0380
1C0380
1C0380
1C0380
1C0380
1C0380
1C0300
1C0E00
1C3800
1C0E00
1C0300
1C0380
1C01C0
1C01C0
1C01E0
1C01E0
1C01E0
1C01E0
1C01E0
1C01C0
1C71C0
1C7180
1C6380
3E7700
FF3E00
ENDCHAR

STARTCHAR racute
ENCODING 224
SWIDTH 444 0
DWIDTH 17 0
BBX 15 28 1 0
BITMAP
0030
0070
00F0
01E0
01C0
0300
0600
0400
0000
0000
3C18
FC7E
1CCE
1C9E
0D9E
0D0C
0D00
0E00
0E00
0E00
0E00
0E00
0E00
0E00
0E00
0E00
1E00
FFE0
ENDCHAR

STARTCHAR aacute
ENCODING 225
SWIDTH 556 0
DWIDTH 21 0
BBX 19 28 2 0
BITMAP
001C00
003C00
007C00
007000
00E000
01C000
030000
000000
000000
000000
0FF000
187C00
301E00
700E00
780E00
780E00
300E00
007E00
07CE00
1E0E00
380E00
700E00
E00E00
E01E00
F03E00
F06F20
7FC7E0
1F0380
ENDCHAR

STARTCHAR acircumflex
ENCODING 226
SWIDTH 556 0
DWIDTH 21 0
BBX 19 28 2 0
BITMAP
00E000
01E000
01F000
033800
061800
0C0E00
000000
000000
000000
000000
0FF000
187C00
301E00
700E00
780E00
780E00
300E00
007E00
07CE00
1E0E00
380E00
700E00
E00E00
E01E00
F03E00
F06F20
7FC7E0
1F0380
ENDCHAR

STARTCHAR abreve
ENCODING 227
SWIDTH 556 0
DWIDTH 21 0
BBX 19 28 2 0
BITMAP
180200
080600
0E0E00
07FC00
07F800
01F000
000000
000000
000000
000000
0FF000
187C00
301E00
700E00
780E00
780E00
300E00
007E00
07CE00
1E0E00
380E00
700E00
E00E00
E01E00
F03E00
F06F20
7FC7E0
1F0380
ENDCHAR

STARTCHAR adieresis
ENCODING 228
SWIDTH 556 0
DWIDTH 21 0
BBX 18 26 2 0
BITMAP
0E0C00
0F1C00
0F1C00
0E0C00
000000
000000
000000
000000
0FF000
1C3C00
301C00
700E00
780E00
780E00
300E00
007E00
07CE00
1E0E00
380E00
700E00
F00E00
E01E00
F01E00
F06E40
7FC7C0
1F0380
ENDCHAR

STARTCHAR lacute
ENCODING 229
SWIDTH 315 0
DWIDTH 12 0
BBX 10 37 1 0
BITMAP
0180
03C0
0780
0F00
0C00
1800
3000
0000
0000
FE00
FE00
1E00
0E00
0E00
0E00
0E00
0E00
0E00
0E00
0E00
0E00
0E00
0E00
0E00
0E00
0E00
0E00
0E00
0E00
0E00
0E00
0E00
0E00
0E00
0E00
1E00
7FC0
ENDCHAR

STARTCHAR cacute
ENCODING 230
SWIDTH 444 0
DWIDTH 17 0
BBX 14 28 1 0
BITMAP
0060
00F0
01E0
01C0
0380
0600
0C00
0400
0000
0000
07E0
1C38
381C
703C
703C
F03C
E018
E000
E000
E000
E000
F000
F004
700C
780C
3C18
1FF0
03C0
ENDCHAR

STARTCHAR ccedilla
ENCODING 231
SWIDTH 444 0
DWIDTH 17 0
BBX 14 24 1 -6
BITMAP
07E0
1C38
381C
703C
703C
F03C
E010
E000
E000
E000
E000
F000
F004
7004
7808
3C18
1FF0
01C0
03C0
03E0
00E0
00E0
01C0
0FC0
ENDCHAR

STARTCHAR ccaron
ENCODING 232
SWIDTH 444 0
DWIDTH 17 0
BBX 14 28 1 0
BITMAP
3030
1860
0CC0
0EC0
0780
0300
0000
0000
0000
0000
07E0
1C38
381C
703C
703C
F03C
E018
E000
E000
E000
E000
F000
F004
700C
780C
3C18
1FF0
03C0
ENDCHAR

STARTCHAR eacute
ENCODING 233
SWIDTH 500 0
DWIDTH 19 0
BBX 16 28 2 0
BITMAP
0030
0078
00F0
01E0
01C0
0300
0600
0400
0000
0000
07E0
1C38
381C
700C
700E
F00E
E00F
E00F
FFFF
E000
E000
F000
F003
7002
7806
3C1C
0FF8
03C0
ENDCHAR

STARTCHAR eogonek
ENCODING 234
SWIDTH 500 0
DWIDTH 19 0
BBX 16 25 2 -7
BITMAP
07E0
1C38
381C
700C
700E
F00E
E00F
E00F
FFFF
E000
E000
F000
F001
7002
7806
3C1C
0FF8
03E0
0100
0300
0300
0380
03C0
01FE
00F0
ENDCHAR

STARTCHAR edieresis
ENCODING 235
SWIDTH 500 0
DWIDTH 19 0
BBX 16 26 1 0
BITMAP
0C18
1E3C
1E3C
0C18
0000
0000
0000
0000
03F0
0E38
1C0C
380E
7806
7007
7007
F00F
FFFF
F000
F000
7000
7001
7803
3C06
1E0C
0FF8
01E0
ENDCHAR

STARTCHAR ecaron
ENCODING 236
SWIDTH 500 0
DWIDTH 19 0
BBX 16 28 2 0
BITMAP
1018
0830
0C60
0760
03C0
0380
0000
0000
0000
0000
07E0
1C38
381C
700C
700E
F00E
E00F
E00F
FFFF
E000
E000
F000
F003
7002
7806
3C1C
0FF8
03C0
ENDCHAR

STARTCHAR iacute
ENCODING 237
SWIDTH 315 0
DWIDTH 12 0
BBX 10 28 1 0
BITMAP
01C0
03C0
03C0
0780
0E00
0C00
3800
1000
0000
0000
7E00
FE00
1E00
0E00
0E00
0E00
0E00
0E00
0E00
0E00
0E00
0E00
0E00
0E00
0E00
0E00
1E00
7FC0
ENDCHAR

STARTCHAR icircumflex
ENCODING 238
SWIDTH 315 0
DWIDTH 12 0
BBX 10 28 1 0
BITMAP
0C00
0E00
1F00
3B00
7180
40C0
8040
0000
0000
0000
7E00
FE00
1E00
0E00
0E00
0E00
0E00
0E00
0E00
0E00
0E00
0E00
0E00
0E00
0E00
0E00
1E00
7FC0
ENDCHAR

STARTCHAR dcaron
ENCODING 239
SWIDTH 651 0
DWIDTH 25 0
BBX 22 28 2 0
BITMAP
007F38
007F7C
00073C
00070C
000708
000718
000730
000760
000700
000700
07E700
1E3700
381B00
380F00
700F00
700700
F00700
F00700
F00700
F00700
F00700
F00700
700F00
780F00
381B00
3C3700
0FE780
0787E0
ENDCHAR

STARTCHAR dcroat
ENCODING 240
SWIDTH 574 0
DWIDTH 22 0
BBX 20 29 2 0
BITMAP
000100
007F00
000F00
000700
000700
000700
01FFF0
000700
000700
000700
000700
07E700
1E3700
381B00
380F00
700F00
700700
F00700
F00700
F00700
F00700
F00700
F00700
700F00
780F00
381B00
3C3700
0FE780
0787E0
ENDCHAR

STARTCHAR nacute
ENCODING 241
SWIDTH 611 0
DWIDTH 23 0
BBX 21 28 1 0
BITMAP
000600
000E00
001E00
003C00
007800
006000
00C000
008000
000000
000000
3C1C00
FC7F00
3CFF80
1D8780
1E03C0
1E01C0
1C01C0
1C01C0
1C01C0
1C01C0
1C01C0
1C01C0
1C01C0
1C01C0
1C01C0
1C01C0
3E03E0
FF8FF8
ENDCHAR

STARTCHAR ncaron
ENCODING 242
SWIDTH 611 0
DWIDTH 23 0
BBX 21 28 1 0
BITMAP
060300
030600
018C00
01D800
00F800
007000
002000
000000
000000
000000
3C1C00
FC7F00
3CFF80
1D8780
1E03C0
1E01C0
1C01C0
1C01C0
1C01C0
1C01C0
1C01C0
1C01C0
1C01C0
1C01C0
1C01C0
1C01C0
3E03E0
FF8FF8
ENDCHAR

STARTCHAR oacute
ENCODING 243
SWIDTH 500 0
DWIDTH 19 0
BBX 16 28 2 0
BITMAP
0030
0078
00F0
00E0
01C0
0300
0600
0200
0000
0000
07E0
1C38
381C
700E
700E
F007
E007
E007
E007
E007
E007
E007
F00F
700E
700E
381C
1C38
07E0
ENDCHAR

STARTCHAR ocircumflex
ENCODING 244
SWIDTH 500 0
DWIDTH 19 0
BBX 16 28 2 0
BITMAP
0180
03C0
07E0
0660
0C30
1818
0000
0000
0000
0000
07E0
1C38
381C
700E
700E
F007
E007
E007
E007
E007
E007
E007
F00F
700E
700E
381C
1C38
07E0
ENDCHAR

STARTCHAR ohungarumlaut
ENCODING 245
SWIDTH 500 0
DWIDTH 19 0
BBX 17 28 2 0
BITMAP
018380
03C780
078780
070E00
0E1C00
181800
302000
202000
000000
000000
07E000
1C3800
381C00
700E00
700E00
F00700
E00700
E00700
E00700
E00700
E00700
E00700
F00F00
700E00
700E00
381C00
1C3800
07E000
ENDCHAR

STARTCHAR odieresis
ENCODING 246
SWIDTH 500 0
DWIDTH 19 0
BBX 16 26 2 0
BITMAP
1830
3C78
3C78
1830
0000
0000
0000
0000
07E0
1C38
381C
700E
700E
F007
E007
E007
E007
E007
E007
E007
F00F
700E
700E
381C
1C38
07E0
ENDCHAR

STARTCHAR divide
ENCODING 247
SWIDTH 606 0
DWIDTH 23 0
BBX 21 20 1 3
BITMAP
003000
007800
007800
003000
000000
000000
000000
000000
000000
FFFFF8
FFFFF8
000000
000000
000000
000000
000000
003000
007800
007800
003000
ENDCHAR

STARTCHAR rcaron
ENCODING 248
SWIDTH 444 0
DWIDTH 17 0
BBX 15 28 1 0
BITMAP
3018
1830
0C60
06C0
07C0
0380
0100
0000
0000
0000
3C18
FC7E
1CCE
1C9E
0D9E
0D0C
0D00
0E00
0E00
0E00
0E00
0E00
0E00
0E00
0E00
0E00
1E00
FFE0
ENDCHAR

STARTCHAR uring
ENCODING 249
SWIDTH 611 0
DWIDTH 23 0
BBX 20 28 2 0
BITMAP
00F000
019800
030C00
030C00
030C00
019800
00F000
000000
000000
000000
7C0780
FC1F80
3C0380
1C0380
1C0380
1C0380
1C0380
1C0380
1C0380
1C0380
1C0380
1C0380
1C0380
1C0780
0E0D80
0FFBC0
07E3F0
018000
ENDCHAR

STARTCHAR uacute
ENCODING 250
SWIDTH 611 0
DWIDTH 23 0
BBX 21 28 1 0
BITMAP
000600
000E00
001E00
003C00
003800
006000
00C000
008000
000000
000000
3C03C0
FC0FC0
3C03C0
1C01C0
1C01C0
1C01C0
1C01C0
1C01C0
1C01C0
1C01C0
1C01C0
1C01C0
1C03C0
1E03C0
0F0DC0
0FF9E0
07F1F8
01C000
ENDCHAR

STARTCHAR uhungarumlaut
ENCODING 251
SWIDTH 611 0
DWIDTH 23 0
BBX 21 28 1 0
BITMAP
003060
0070F0
00F1F0
01E1C0
01C380
030700
060400
040800
000000
000000
3C03C0
FC0FC0
3C03C0
1C01C0
1C01C0
1C01C0
1C01C0
1C01C0
1C01C0
1C01C0
1C01C0
1C01C0
1C03C0
1E03C0
0F0DC0
0FF9E0
07F1F8
01C000
ENDCHAR

STARTCHAR udieresis
ENCODING 252
SWIDTH 611 0
DWIDTH 23 0
BBX 21 26 1 0
BITMAP
030600
078F00
078F00
030600
000000
000000
000000
000000
3C03C0
FC0FC0
3C03C0
1C01C0
1C01C0
1C01C0
1C01C0
1C01C0
1C01C0
1C01C0
1C01C0
1C01C0
1C03C0
1E03C0
0F0DC0
0FF9E0
07F1F8
01C000
ENDCHAR

STARTCHAR yacute
ENCODING 253
SWIDTH 537 0
DWIDTH 20 0
BBX 19 36 1 -7
BITMAP
000800
001C00
003C00
007800
007000
00C000
018000
010000
000000
000000
000000
FF0FE0
7C03C0
3C0180
1C0100
1C0300
0E0200
0E0600
070400
070400
078C00
038800
03D800
01D000
01F000
00E000
00E000
006000
004000
00C000
008000
618000
E30000
E60000
FC0000
300000
ENDCHAR

STARTCHAR tcommaaccent
ENCODING 254
SWIDTH 389 0
DWIDTH 15 0
BBX 13 32 1 -7
BITMAP
0400
0400
0400
0C00
0C00
1C00
3C00
FFF0
FFF0
1C00
1C00
1C00
1C00
1C00
1C00
1C00
1C00
1C00
1C08
1C08
1C18
1C10
1E30
0FE0
0380
0000
0600
0F00
0F00
0100
0200
0400
ENDCHAR

STARTCHAR dotaccent
ENCODING 255
SWIDTH 333 0
DWIDTH 13 0
BBX 4 4 4 23
BITMAP
60
F0
F0
60
ENDCHAR
ENDFONT
